<svg width="25" height="16" viewBox="0 0 25 16" fill="none" xmlns="http://www.w3.org/2000/svg">
<path d="M24.2131 2.27203L25 0.238177L24.9658 0.112169L17.181 2.15899C18.011 0.960892 17.7259 0 17.7259 0C17.7259 0 15.2398 1.5843 13.3598 1.54288C11.4798 1.50137 10.8737 1.00065 7.99092 1.91837C5.10811 2.83541 4.29365 5.65036 3.45781 6.25506C2.62207 6.85995 0 8.82959 0 8.82959L0.00566406 8.86457L2.36963 8.1135C2.36963 8.1135 1.72119 8.72307 0.34375 10.5757L0.279395 10.5163L0.281836 10.5294C0.281836 10.5294 1.38887 12.2177 2.47549 11.9055C2.58467 11.8738 2.70762 11.8218 2.84199 11.7535C3.27949 11.9966 3.85049 12.2356 4.48096 12.3014C4.48096 12.3014 4.0542 11.8063 3.69814 11.243C3.79424 11.1812 3.89287 11.117 3.99307 11.052L3.94658 11.0846L4.84668 11.4145L4.74736 10.57C4.75059 10.5684 4.75303 10.5659 4.75625 10.5643L5.64092 10.8886L5.53096 10.1205C5.64142 10.0627 5.7533 10.0077 5.8665 9.95547L6.78867 6.47472L10.6017 3.87914L10.2986 4.64006C9.52559 6.53728 8.07402 6.98518 8.07402 6.98518L7.46797 7.21439C7.01758 7.746 6.82773 7.87688 6.67305 9.66116C7.03633 9.57014 7.3833 9.54811 7.69766 9.6327C9.32686 10.0709 9.89131 12.03 9.45225 12.5721C9.34229 12.7078 9.08086 12.9395 8.75098 13.2119H8.08955L8.08057 13.7467C8.05772 13.7646 8.03496 13.7817 8.01289 13.7995H7.34004L7.33193 14.3214C7.27246 14.367 7.21299 14.4108 7.15605 14.4539C6.52393 14.4669 5.72314 13.9166 5.72314 13.9166C5.72314 14.4174 6.14111 15.1879 6.14111 15.1879C6.14111 15.1879 6.16875 15.175 6.21514 15.1522C6.17441 15.1823 6.15166 15.1986 6.15166 15.1986C6.15166 15.1986 7.84346 16.3243 8.90898 15.9073C9.85625 15.5366 12.309 13.6069 14.4261 12.6932L20.8326 11.0089L21.6773 8.82471L16.7948 10.1082V8.14683L22.5237 6.64049L23.3685 4.45626L16.7965 6.1845V4.22208L24.2131 2.27203Z" fill="black"/>
</svg>
