<svg width="20" height="4" viewBox="0 0 20 4" fill="none" xmlns="http://www.w3.org/2000/svg">
<path d="M16.779 0.00166631V0.639515H15.3971V3.99527H14.7061V0.639554H13.2954V0.00166631H16.779ZM16.9344 3.61485C16.983 3.61485 17.0256 3.63221 17.0617 3.66701C17.0982 3.70177 17.1164 3.74343 17.117 3.79194C17.1168 3.82377 17.1079 3.85496 17.0912 3.88212C17.0747 3.90888 17.0517 3.93108 17.0242 3.94664C16.9971 3.96277 16.966 3.97117 16.9344 3.9709C16.8837 3.9709 16.8407 3.9535 16.8047 3.91874C16.7686 3.88394 16.7508 3.84182 16.7513 3.79194C16.7508 3.74343 16.7686 3.70178 16.8047 3.66701C16.8407 3.63221 16.8837 3.61485 16.9344 3.61485ZM3.23891 3.99527L0.691016 0.853616V3.99364H0V0H0.863711L4.0827 3.96539L4.08273 0.639554L4.08246 0.00166631H7.56605V0.639515H4.77371V1.66565H7.01934V2.30354H4.77371V3.35742H7.56609V3.99527H3.23891ZM9.78066 2.29746L10.2335 2.85598L9.30559 4H8.39875L9.78066 2.29746ZM9.30559 0.00333262L10.4747 1.44372L11.6402 0.00775029L12.5445 0.00639399L10.9275 2.00151L12.5471 3.99694H11.6402L8.40133 0.00333262H9.30559ZM18.1137 2.2885H18.4199V3.4588C18.4195 3.56633 18.396 3.65829 18.3502 3.73568C18.3038 3.81299 18.2396 3.87204 18.1573 3.9137C18.0753 3.95485 17.9793 3.97594 17.8702 3.97594C17.7705 3.97594 17.6811 3.95811 17.6015 3.92331C17.5219 3.88851 17.4587 3.83635 17.4124 3.76768C17.3655 3.69906 17.3426 3.61345 17.3426 3.51096H17.6493C17.6498 3.55579 17.66 3.59466 17.6797 3.62721C17.699 3.65935 17.7273 3.68524 17.7612 3.70177C17.7963 3.71921 17.8365 3.72791 17.8819 3.72789C17.9311 3.72789 17.9732 3.71781 18.0074 3.6972C18.0416 3.67705 18.0678 3.64685 18.0861 3.6066C18.1039 3.56676 18.1132 3.51735 18.1137 3.45876V2.2885ZM19.6797 2.74616C19.6723 2.67524 19.6395 2.61983 19.5824 2.5805C19.5248 2.54066 19.4504 2.52101 19.359 2.52101C19.295 2.52101 19.2397 2.53062 19.1938 2.54938C19.1479 2.5686 19.1123 2.59421 19.088 2.62673C19.0637 2.6592 19.0515 2.69629 19.0505 2.73794C19.0505 2.7727 19.0589 2.80293 19.0753 2.82808C19.0923 2.85446 19.1152 2.87657 19.1423 2.89264C19.1717 2.91097 19.2031 2.92586 19.2359 2.93701C19.2706 2.94889 19.3052 2.95897 19.3398 2.96724L19.4995 3.00614C19.5637 3.02079 19.6259 3.04044 19.6854 3.06563C19.7448 3.09035 19.7987 3.12193 19.8459 3.15991C19.8933 3.19788 19.9307 3.24365 19.9583 3.2972C19.9859 3.35076 20 3.41346 20 3.48577C20 3.58323 19.9747 3.66883 19.9237 3.74296C19.8727 3.81667 19.7991 3.87433 19.7027 3.91599C19.6067 3.95718 19.4906 3.97822 19.3539 3.97822C19.2219 3.97822 19.1067 3.95807 19.0098 3.91781C18.9124 3.87801 18.8366 3.81938 18.7818 3.7425C18.727 3.66561 18.6975 3.5718 18.6933 3.46151H18.9967C19.0009 3.51917 19.0196 3.56722 19.0515 3.60613C19.0837 3.64457 19.1259 3.67294 19.1774 3.69216C19.2294 3.71095 19.2874 3.72056 19.3516 3.72056C19.4185 3.72056 19.4775 3.71049 19.5285 3.6908C19.5791 3.67112 19.6189 3.64368 19.6475 3.60795C19.6765 3.57269 19.691 3.53107 19.6915 3.48348C19.691 3.44 19.6779 3.40385 19.6526 3.37544C19.6268 3.34708 19.5912 3.32328 19.5458 3.30406C19.5 3.28484 19.4466 3.26744 19.3857 3.25237L19.1919 3.20385C19.0519 3.16859 18.941 3.11507 18.86 3.04319C18.7785 2.97134 18.7382 2.87617 18.7382 2.7567C18.7382 2.65877 18.7654 2.57271 18.8202 2.499C18.8745 2.42537 18.9489 2.36814 19.043 2.32741C19.1376 2.28622 19.2444 2.26607 19.3632 2.26607C19.4841 2.26607 19.5898 2.28622 19.6812 2.32741C19.7724 2.36814 19.8441 2.42487 19.896 2.49718C19.948 2.56953 19.9752 2.65234 19.9766 2.74616H19.6797Z" fill="black"/>
</svg>
