<svg width="27" height="27" viewBox="0 0 27 27" fill="none" xmlns="http://www.w3.org/2000/svg">
<rect width="27" height="27" rx="7" fill="white" fill-opacity="0.1"/>
<path d="M25.2131 7.27203L26 5.23818L25.9658 5.11217L18.181 7.15899C19.011 5.96089 18.7259 5 18.7259 5C18.7259 5 16.2398 6.5843 14.3598 6.54288C12.4798 6.50137 11.8737 6.00065 8.99092 6.91837C6.10811 7.83541 5.29365 10.6504 4.45781 11.2551C3.62207 11.86 1 13.8296 1 13.8296L1.00566 13.8646L3.36963 13.1135C3.36963 13.1135 2.72119 13.7231 1.34375 15.5757L1.27939 15.5163L1.28184 15.5294C1.28184 15.5294 2.38887 17.2177 3.47549 16.9055C3.58467 16.8738 3.70762 16.8218 3.84199 16.7535C4.27949 16.9966 4.85049 17.2356 5.48096 17.3014C5.48096 17.3014 5.0542 16.8063 4.69814 16.243C4.79424 16.1812 4.89287 16.117 4.99307 16.052L4.94658 16.0846L5.84668 16.4145L5.74736 15.57C5.75059 15.5684 5.75303 15.5659 5.75625 15.5643L6.64092 15.8886L6.53096 15.1205C6.64142 15.0627 6.7533 15.0077 6.8665 14.9555L7.78867 11.4747L11.6017 8.87914L11.2986 9.64006C10.5256 11.5373 9.07402 11.9852 9.07402 11.9852L8.46797 12.2144C8.01758 12.746 7.82773 12.8769 7.67305 14.6612C8.03633 14.5701 8.3833 14.5481 8.69766 14.6327C10.3269 15.0709 10.8913 17.03 10.4522 17.5721C10.3423 17.7078 10.0809 17.9395 9.75098 18.2119H9.08955L9.08057 18.7467C9.05772 18.7646 9.03496 18.7817 9.01289 18.7995H8.34004L8.33193 19.3214C8.27246 19.367 8.21299 19.4108 8.15605 19.4539C7.52393 19.4669 6.72314 18.9166 6.72314 18.9166C6.72314 19.4174 7.14111 20.1879 7.14111 20.1879C7.14111 20.1879 7.16875 20.175 7.21514 20.1522C7.17441 20.1823 7.15166 20.1986 7.15166 20.1986C7.15166 20.1986 8.84346 21.3243 9.90898 20.9073C10.8562 20.5366 13.309 18.6069 15.4261 17.6932L21.8326 16.0089L22.6773 13.8247L17.7948 15.1082V13.1468L23.5237 11.6405L24.3685 9.45626L17.7965 11.1845V9.22208L25.2131 7.27203Z" fill="black"/>
</svg>
