<svg width="27" height="27" viewBox="0 0 27 27" fill="none" xmlns="http://www.w3.org/2000/svg">
<rect width="27" height="27" rx="7" fill="white" fill-opacity="0.1"/>
<path d="M20.779 12.0017V12.6395H19.3971V15.9953H18.7061V12.6396H17.2954V12.0017H20.779ZM20.9344 15.6148C20.983 15.6148 21.0256 15.6322 21.0617 15.667C21.0982 15.7018 21.1164 15.7434 21.117 15.7919C21.1168 15.8238 21.1079 15.855 21.0912 15.8821C21.0747 15.9089 21.0517 15.9311 21.0242 15.9466C20.9971 15.9628 20.966 15.9712 20.9344 15.9709C20.8837 15.9709 20.8407 15.9535 20.8047 15.9187C20.7686 15.8839 20.7508 15.8418 20.7513 15.7919C20.7508 15.7434 20.7686 15.7018 20.8047 15.667C20.8407 15.6322 20.8837 15.6148 20.9344 15.6148ZM7.23891 15.9953L4.69102 12.8536V15.9936H4V12H4.86371L8.0827 15.9654L8.08273 12.6396L8.08246 12.0017H11.5661V12.6395H8.77371V13.6657H11.0193V14.3035H8.77371V15.3574H11.5661V15.9953H7.23891ZM13.7807 14.2975L14.2335 14.856L13.3056 16H12.3987L13.7807 14.2975ZM13.3056 12.0033L14.4747 13.4437L15.6402 12.0078L16.5445 12.0064L14.9275 14.0015L16.5471 15.9969H15.6402L12.4013 12.0033H13.3056ZM22.1137 14.2885H22.4199V15.4588C22.4195 15.5663 22.396 15.6583 22.3502 15.7357C22.3038 15.813 22.2396 15.872 22.1573 15.9137C22.0753 15.9549 21.9793 15.9759 21.8702 15.9759C21.7705 15.9759 21.6811 15.9581 21.6015 15.9233C21.5219 15.8885 21.4587 15.8364 21.4124 15.7677C21.3655 15.6991 21.3426 15.6135 21.3426 15.511H21.6493C21.6498 15.5558 21.66 15.5947 21.6797 15.6272C21.699 15.6593 21.7273 15.6852 21.7612 15.7018C21.7963 15.7192 21.8365 15.7279 21.8819 15.7279C21.9311 15.7279 21.9732 15.7178 22.0074 15.6972C22.0416 15.677 22.0678 15.6468 22.0861 15.6066C22.1039 15.5668 22.1132 15.5174 22.1137 15.4588V14.2885ZM23.6797 14.7462C23.6723 14.6752 23.6395 14.6198 23.5824 14.5805C23.5248 14.5407 23.4504 14.521 23.359 14.521C23.295 14.521 23.2397 14.5306 23.1938 14.5494C23.1479 14.5686 23.1123 14.5942 23.088 14.6267C23.0637 14.6592 23.0515 14.6963 23.0505 14.7379C23.0505 14.7727 23.0589 14.8029 23.0753 14.8281C23.0923 14.8545 23.1152 14.8766 23.1423 14.8926C23.1717 14.911 23.2031 14.9259 23.2359 14.937C23.2706 14.9489 23.3052 14.959 23.3398 14.9672L23.4995 15.0061C23.5637 15.0208 23.6259 15.0404 23.6854 15.0656C23.7448 15.0903 23.7987 15.1219 23.8459 15.1599C23.8933 15.1979 23.9307 15.2436 23.9583 15.2972C23.9859 15.3508 24 15.4135 24 15.4858C24 15.5832 23.9747 15.6688 23.9237 15.743C23.8727 15.8167 23.7991 15.8743 23.7027 15.916C23.6067 15.9572 23.4906 15.9782 23.3539 15.9782C23.2219 15.9782 23.1067 15.9581 23.0098 15.9178C22.9124 15.878 22.8366 15.8194 22.7818 15.7425C22.727 15.6656 22.6975 15.5718 22.6933 15.4615H22.9967C23.0009 15.5192 23.0196 15.5672 23.0515 15.6061C23.0837 15.6446 23.1259 15.6729 23.1774 15.6922C23.2294 15.711 23.2874 15.7206 23.3516 15.7206C23.4185 15.7206 23.4775 15.7105 23.5285 15.6908C23.5791 15.6711 23.6189 15.6437 23.6475 15.608C23.6765 15.5727 23.691 15.5311 23.6915 15.4835C23.691 15.44 23.6779 15.4038 23.6526 15.3754C23.6268 15.3471 23.5912 15.3233 23.5458 15.3041C23.5 15.2848 23.4466 15.2674 23.3857 15.2524L23.1919 15.2039C23.0519 15.1686 22.941 15.1151 22.86 15.0432C22.7785 14.9713 22.7382 14.8762 22.7382 14.7567C22.7382 14.6588 22.7654 14.5727 22.8202 14.499C22.8745 14.4254 22.9489 14.3681 23.043 14.3274C23.1376 14.2862 23.2444 14.2661 23.3632 14.2661C23.4841 14.2661 23.5898 14.2862 23.6812 14.3274C23.7724 14.3681 23.8441 14.4249 23.896 14.4972C23.948 14.5695 23.9752 14.6523 23.9766 14.7462H23.6797Z" fill="black"/>
</svg>
