<svg width="27" height="27" viewBox="0 0 27 27" fill="none" xmlns="http://www.w3.org/2000/svg">
<rect width="27" height="27" rx="7" fill="#61DAFB" fill-opacity="0.45"/>
<path d="M9.63543 5.00155C9.32074 5.01227 9.0209 5.08911 8.75 5.24578C8.2085 5.55941 7.8852 6.13485 7.73988 6.81587C7.59471 7.49704 7.61 8.30703 7.75473 9.21351C7.81054 9.56304 7.89218 9.93058 7.98659 10.3063C7.61505 10.412 7.25687 10.5252 6.92734 10.6515C6.07234 10.9791 5.36577 11.3708 4.8504 11.8377C4.33502 12.3045 4 12.8727 4 13.4999C4 14.1272 4.33488 14.6958 4.8504 15.1625C5.36563 15.6295 6.07219 16.0212 6.92719 16.3488C7.25672 16.4751 7.6149 16.588 7.98644 16.6939C7.89203 17.0696 7.81039 17.4371 7.75458 17.7865C7.60985 18.6935 7.59486 19.5031 7.74003 20.1842C7.8855 20.8655 8.20835 21.4408 8.74985 21.7544C9.29135 22.068 9.94923 22.0612 10.6099 21.8467C11.2705 21.6323 11.9622 21.2143 12.6725 20.6351C12.9462 20.412 13.2227 20.1577 13.5 19.8875C13.777 20.1577 14.0537 20.412 14.3274 20.6351C15.0375 21.2144 15.7289 21.6324 16.3896 21.8469C17.0502 22.0613 17.7085 22.068 18.25 21.7546C18.7915 21.4408 19.1148 20.8655 19.2601 20.1843C19.4053 19.5031 19.3897 18.6933 19.245 17.7867C19.1892 17.4371 19.1078 17.0696 19.0134 16.6939C19.385 16.5881 19.7431 16.475 20.0727 16.3488C20.9277 16.0213 21.6342 15.6295 22.1496 15.1627C22.665 14.6958 23 14.1272 23 13.4999C23 12.8727 22.6651 12.3044 22.1496 11.8377C21.6342 11.371 20.9277 10.979 20.0727 10.6515C19.7431 10.5254 19.3852 10.412 19.0137 10.3063C19.1081 9.93058 19.1895 9.56289 19.2453 9.21351C19.39 8.30703 19.405 7.49704 19.2598 6.81587C19.1146 6.1347 18.7916 5.55941 18.25 5.24578C17.7084 4.93215 17.0506 4.939 16.3899 5.15345C15.7294 5.3679 15.0377 5.78607 14.3274 6.36508C14.0537 6.58846 13.7767 6.84282 13.4996 7.11297C13.2224 6.84297 12.9459 6.58831 12.6722 6.36508C11.9622 5.78607 11.2711 5.3676 10.6105 5.15315C10.2801 5.04593 9.95027 4.99083 9.63528 5.00125L9.63543 5.00155ZM9.67343 5.82732C9.87085 5.82166 10.0971 5.85815 10.3562 5.94199C10.8743 6.11027 11.4955 6.47364 12.1513 7.00828C12.4039 7.21409 12.6624 7.45236 12.9227 7.70672C12.3789 8.29645 11.8394 8.96705 11.3175 9.70734C10.4175 9.79074 9.56893 9.92417 8.7877 10.102C8.69864 9.74844 8.62205 9.40503 8.57054 9.08231C8.43695 8.24537 8.43398 7.52384 8.54798 6.98951C8.66183 6.45533 8.87484 6.13068 9.1631 5.96373C9.30723 5.88034 9.47601 5.83268 9.67343 5.82732ZM17.3267 5.82732C17.5241 5.83283 17.6929 5.88019 17.837 5.96373C18.1253 6.13053 18.3383 6.45518 18.4522 6.98936C18.566 7.52355 18.5635 8.24522 18.4299 9.08231C18.3784 9.40473 18.302 9.74859 18.2127 10.1018C17.4317 9.92417 16.5829 9.79059 15.6826 9.70734C15.1607 8.9672 14.621 8.29645 14.0771 7.70657C14.3375 7.45236 14.5962 7.21394 14.8489 7.00813C15.5046 6.4732 16.1259 6.11042 16.6441 5.94214C16.9031 5.85815 17.1294 5.82181 17.3269 5.82747L17.3267 5.82732ZM13.5 8.30286C13.8886 8.72839 14.2572 9.17197 14.6044 9.63214C14.2416 9.61575 13.8745 9.60473 13.5 9.60473C13.1256 9.60473 12.7586 9.6156 12.3956 9.63214C12.7427 9.17183 13.1112 8.72825 13.5 8.30286ZM13.5 10.4336C14.0915 10.4336 14.6682 10.457 15.2269 10.4992C15.5518 10.9765 15.8588 11.466 16.1471 11.9665C16.435 12.4673 16.7041 12.9788 16.9537 13.4999C16.7041 14.0209 16.435 14.5324 16.1471 15.0331C15.8587 15.5337 15.5518 16.0234 15.2268 16.5009C14.6682 16.543 14.0915 16.5665 13.5001 16.5665C12.9237 16.5664 12.3474 16.5446 11.7726 16.501C11.4478 16.0234 11.141 15.5338 10.8528 15.0331C10.5649 14.5325 10.2958 14.0211 10.0462 13.5002C10.2959 12.9791 10.565 12.4676 10.8531 11.9668C11.1414 11.4662 11.4484 10.9766 11.7734 10.4992C12.3479 10.4556 12.9238 10.4338 13.5 10.4336ZM10.7134 10.6068C10.5143 10.9176 10.3223 11.2329 10.1374 11.5525C9.95399 11.8728 9.7778 12.1972 9.60901 12.5255C9.38531 11.9938 9.18658 11.4518 9.01348 10.9014C9.54637 10.7823 10.1137 10.6825 10.7134 10.6068ZM16.2868 10.6068C16.8577 10.6783 17.4249 10.7766 17.9867 10.9014C17.8136 11.4519 17.6148 11.994 17.3911 12.5258C17.2224 12.1974 17.0462 11.8728 16.8627 11.5523C16.6779 11.2328 16.4858 10.9175 16.2868 10.6067V10.6068ZM8.21043 11.1044C8.44763 11.8719 8.75683 12.6761 9.1352 13.4996C8.75668 14.3235 8.44793 15.128 8.21043 15.8955C7.86086 15.7965 7.52613 15.6909 7.22184 15.5744C6.4323 15.2721 5.80812 14.9135 5.40377 14.5472C4.99958 14.1811 4.82591 13.8338 4.82591 13.4998C4.82591 13.1659 4.99958 12.8189 5.40377 12.4529C5.80812 12.0865 6.43245 11.7281 7.22184 11.4258C7.52613 11.3091 7.86086 11.2034 8.21043 11.1042V11.1044ZM18.7896 11.1044C19.1393 11.2036 19.4742 11.3093 19.7782 11.4261C20.5679 11.7284 21.192 12.0867 21.5964 12.4529C22.0006 12.8192 22.1742 13.1662 22.1742 13.4999C22.1742 13.834 22.0006 14.1813 21.5964 14.5473C21.192 14.9137 20.5677 15.272 19.7783 15.5744C19.474 15.6909 19.139 15.7963 18.7894 15.8955C18.5522 15.1281 18.2432 14.3239 17.8651 13.5002C18.2435 12.6764 18.5522 11.8721 18.7896 11.1044ZM13.5 11.801C13.0509 11.8011 12.6202 11.9801 12.3027 12.2987C11.9851 12.6173 11.8067 13.0494 11.8066 13.4999C11.8067 13.9505 11.9852 14.3826 12.3027 14.7012C12.6203 15.0198 13.051 15.1988 13.5001 15.1988C13.9492 15.1988 14.3799 15.0198 14.6975 14.7012C15.015 14.3826 15.1934 13.9505 15.1935 13.4999C15.1934 13.0494 15.015 12.6173 14.6974 12.2987C14.3798 11.9801 13.9491 11.8011 13.5 11.801ZM17.3911 14.4743C17.6147 15.0062 17.8134 15.5483 17.9864 16.0988C17.4538 16.2179 16.8865 16.3178 16.2871 16.3936C16.486 16.0827 16.6779 15.7672 16.8626 15.4475C17.046 15.1272 17.2224 14.8027 17.3911 14.4743ZM9.60901 14.4746C9.7778 14.8029 9.95399 15.1273 10.1374 15.4475C10.3224 15.7671 10.5144 16.0825 10.7134 16.3935C10.1424 16.3222 9.57517 16.2238 9.01348 16.0988C9.18658 15.5484 9.38531 15.0064 9.60901 14.4746ZM8.78741 16.8983C9.56848 17.0759 10.4173 17.2091 11.3175 17.2924C11.8394 18.033 12.3791 18.7037 12.923 19.2939C12.6627 19.5478 12.4042 19.7861 12.1516 19.9924C11.4958 20.527 10.874 20.8904 10.3558 21.0586C9.83775 21.2266 9.45107 21.2035 9.1628 21.0366C8.87454 20.8695 8.66183 20.5452 8.54798 20.011C8.43398 19.4766 8.4368 18.7551 8.57054 17.9177C8.62205 17.5953 8.6982 17.2516 8.78741 16.8983ZM18.2124 16.8983C18.3015 17.2516 18.3781 17.5953 18.4296 17.9177C18.5632 18.7551 18.5662 19.4766 18.4522 20.011C18.3383 20.5453 18.1253 20.8698 17.837 21.037C17.5488 21.2038 17.1622 21.2266 16.6441 21.0583C16.1259 20.8901 15.5046 20.5267 14.8489 19.9921C14.5964 19.7861 14.3376 19.5478 14.0774 19.2936C14.6213 18.7039 15.1607 18.0328 15.6826 17.2924C16.5826 17.2091 17.4312 17.0759 18.2124 16.8983ZM12.3956 17.3677C12.7635 17.3854 13.1318 17.3946 13.5001 17.3954C13.8685 17.3946 14.2369 17.3854 14.6048 17.3677C14.2577 17.8283 13.8891 18.272 13.5001 18.6976C13.1113 18.272 12.7427 17.8283 12.3956 17.3677Z" fill="#61DAFB"/>
</svg>
