<svg width="27" height="27" viewBox="0 0 27 27" fill="none" xmlns="http://www.w3.org/2000/svg">
<rect width="27" height="27" rx="7" fill="#007ACC" fill-opacity="0.38"/>
<path d="M21.3833 12.0988C21.9297 12.2305 22.4262 12.5292 22.8094 12.9566C23.0201 13.1882 23.2036 13.4451 23.356 13.722C23.363 13.7522 22.3719 14.4472 21.7707 14.835C21.7489 14.8504 21.6623 14.7519 21.5642 14.6006C21.4545 14.4034 21.2987 14.2385 21.1113 14.1214C20.9239 14.0042 20.7111 13.9387 20.4928 13.9309C19.8019 13.8814 19.3567 14.2591 19.3599 14.8905C19.3539 15.0457 19.3878 15.1997 19.458 15.3365C19.6101 15.6646 19.8923 15.8615 20.7789 16.2626C22.411 16.9959 23.1116 17.4794 23.5439 18.1664C23.7883 18.6005 23.9387 19.0852 23.9848 19.5864C24.0309 20.0876 23.9716 20.5932 23.8108 21.0679C23.59 21.5887 23.2396 22.0382 22.796 22.3697C22.3524 22.7012 21.8318 22.9026 21.2883 22.953C20.7107 23.0214 20.1272 23.0151 19.551 22.9342C18.6686 22.7829 17.8557 22.3408 17.2313 21.6726C16.9954 21.3952 16.7957 21.0865 16.6372 20.7545C16.7042 20.7034 16.7743 20.6569 16.847 20.6153C16.9484 20.555 17.332 20.3246 17.6938 20.1057L18.3507 19.7039L18.488 19.9128C18.7196 20.2576 19.0139 20.5516 19.3541 20.778C19.698 20.9749 20.0875 21.0682 20.4792 21.0475C20.8709 21.0268 21.2494 20.8929 21.5725 20.6608C21.7392 20.4912 21.8434 20.2659 21.8668 20.0242C21.8903 19.7825 21.8315 19.5399 21.7008 19.3389C21.5238 19.0744 21.1619 18.8521 20.1336 18.3867C19.3272 18.1029 18.5927 17.6325 17.9851 17.0106C17.6959 16.6662 17.4822 16.2601 17.3589 15.8207C17.2678 15.3199 17.2543 14.8071 17.3192 14.3019C17.4397 13.7205 17.7287 13.1918 18.1469 12.7877C18.5651 12.3835 19.0923 12.1234 19.6569 12.0426C20.2318 11.9709 20.8138 11.9898 21.3833 12.0988ZM16.031 13.0919L16.038 14.0655H13.0677V22.8699H10.9731V14.0676H8.00283V13.1113C7.99495 12.7838 8.00352 12.4562 8.0285 12.1296C8.0394 12.1142 9.84531 12.1069 12.0349 12.1109L16.0194 12.1223L16.031 13.0919Z" fill="#007ACC"/>
</svg>
